<svg width="359" height="412" viewBox="0 0 359 412" fill="none" xmlns="http://www.w3.org/2000/svg">
<path d="M331.015 235.484L156.975 411.703L96.9754 349.703L122.975 327.203L107.464 330.782C100.576 332.372 93.4045 332.25 86.5747 330.429C78.6489 328.316 71.4211 324.148 65.6209 318.348L19.9754 272.703C-3.52734 247.703 -8.26774 208.392 16.4626 183.002L197.975 0.202637L254.975 57.2026V87.7026C268.438 83.7026 280.108 83.7026 297.976 89.7026C310.353 93.8591 321.437 103.534 327.08 109.088C329.785 111.75 332.448 114.438 335.023 117.227C342.371 125.187 357.333 144.32 358.2 168.94C358.371 173.791 358.299 178.686 357.725 183.505C356.502 193.781 351.375 213.738 331.015 235.484Z" fill="#161718"/>
<path fill-rule="evenodd" clip-rule="evenodd" d="M119.984 264.913C123.696 264.694 127.331 264.091 130.943 263.106C137.651 261.276 144.28 258.125 151.172 253.653L105.638 207.987C100.648 202.357 98.7769 197.352 99.4006 191.722C100.024 185.467 103.143 179.211 109.381 173.581L225.399 57.2272L197.954 29.7026L78.193 149.184C62.5991 164.823 53.8666 181.088 52.6191 197.352C51.3716 213.617 58.2329 229.256 73.203 244.269C88.173 259.283 103.767 266.164 119.984 264.913ZM237.25 117.281C244.305 113.119 251.083 110.065 257.953 108.302C261.409 107.415 264.889 106.856 268.438 106.646C285.279 105.395 300.873 112.902 315.843 127.915C330.813 142.929 337.675 158.568 337.051 175.458C336.427 192.348 327.695 208.612 312.101 224.251L186.102 349.988L158.657 322.464L280.913 199.854C287.151 193.599 290.269 187.343 290.893 181.088C290.893 174.832 287.774 167.951 281.537 161.695L237.25 117.281Z" fill="#161718"/>
<path d="M78.1944 149.184C62.6006 164.823 53.868 181.087 52.6205 197.352C51.373 213.616 58.2343 229.255 73.2044 244.269C88.1745 259.282 103.768 266.163 119.986 264.912C130.59 264.287 140.57 260.533 151.174 253.652L105.64 207.986C100.65 202.356 98.7783 197.352 99.402 191.722C100.026 185.466 103.145 179.211 109.382 173.581L225.4 57.2267L197.955 29.7021L78.1944 149.184ZM268.439 106.646C257.835 107.271 247.855 111.025 237.252 117.28C237.252 117.28 274.677 154.814 281.538 161.695C287.776 167.951 290.894 174.832 290.894 181.087C290.271 187.343 287.152 193.598 280.914 199.854L158.659 322.463L186.104 349.988L312.102 224.251C327.696 208.612 336.428 192.347 337.052 175.457C337.676 158.567 330.815 142.928 315.845 127.915C300.874 112.901 285.281 105.395 268.439 106.646Z" fill="white"/>
<path d="M195.461 211.115C208.896 211.115 219.788 200.192 219.788 186.718C219.788 173.244 208.896 162.321 195.461 162.321C182.026 162.321 171.135 173.244 171.135 186.718C171.135 200.192 182.026 211.115 195.461 211.115Z" fill="white"/>
</svg>
